<?xml version="1.0" standalone="no"?>
<!DOCTYPE svg PUBLIC "-//W3C//DTD SVG 1.1//EN" "http://www.w3.org/Graphics/SVG/1.1/DTD/svg11.dtd">
<svg t="1683623354526" class="icon" viewBox="0 0 1024 1024" version="1.1"
    xmlns="http://www.w3.org/2000/svg" p-id="10759" id="mx_n_1683623354527"
    xmlns:xlink="http://www.w3.org/1999/xlink" width="200" height="200">
    <path
        d="M739.4 922H284.6C183.9 922 102 840.1 102 739.4V284.6C102 183.9 183.9 102 284.6 102h454.7c100.7 0 182.6 81.9 182.6 182.6v454.7c0.1 48.6-18.9 94.5-53.5 129.1-34.5 34.5-80.4 53.6-129 53.6zM284.6 172C222.5 172 172 222.5 172 284.6v454.8c0 62.1 50.5 112.6 112.6 112.6h454.8c29.9 0 58.2-11.8 79.5-33.1 21.3-21.4 33-49.6 33-79.5V284.6c0-62.1-50.5-112.6-112.6-112.6H284.6z"
        fill="#21a2e6" p-id="10760"></path>
    <path
        d="M327.7 520.8c-9 0-17.9-3.4-24.8-10.3-13.7-13.7-13.6-35.8 0-49.5l72.1-72.1-72-72.1c-13.7-13.7-13.7-35.8 0-49.5 13.7-13.7 35.8-13.7 49.5 0l96.9 96.9c6.6 6.6 10.3 15.5 10.3 24.8s-3.7 18.2-10.3 24.8l-96.9 96.8c-6.9 6.8-15.8 10.2-24.8 10.2zM696.3 520.8H522.6c-19.3 0-35-15.7-35-35s15.7-35 35-35h173.7c19.3 0 35 15.7 35 35s-15.7 35-35 35z"
        fill="#21a2e6" p-id="10761"></path>
</svg>